<svg width="69" height="38" viewBox="0 0 524 291" fill="none" xmlns="http://www.w3.org/2000/svg">
<path d="M306.001 289.809C314.381 290.889 322.881 290.659 331.201 289.189C337.011 288.159 343.511 286.939 349.911 285.309C360.211 282.679 361.851 278.509 357.621 268.939C333.101 213.469 308.631 157.989 283.901 102.609C276.101 85.1488 269.231 66.9688 259.061 50.9388C232.511 9.11878 179.281 -9.61121 133.121 4.81879C121.011 8.59879 119.501 11.7387 124.621 23.3287C153.811 89.5287 182.681 155.869 212.401 221.829C230.581 262.179 261.611 284.069 306.021 289.809H306.001Z" fill="url(#paint0_linear_267_375)"/>
<path d="M466.73 289.319C476.96 290.859 487.38 290.649 497.56 288.809C502.8 287.859 508.5 286.749 514.12 285.319C524.42 282.689 526.06 278.519 521.83 268.949C497.31 213.479 472.84 157.999 448.11 102.619C440.31 85.1586 433.44 66.9785 423.27 50.9485C396.72 9.12855 343.49 -9.60145 297.33 4.82855C285.22 8.60855 283.71 11.7486 288.83 23.3386C318.02 89.5386 346.89 155.879 376.61 221.839C394.31 261.129 424.19 282.919 466.74 289.329L466.73 289.319Z" fill="url(#paint1_linear_267_375)"/>
<path d="M150.419 175.099C150.899 143.489 139.689 116.439 117.429 94.0788C101.489 78.0688 76.0291 82.0488 66.7091 102.589C44.9391 150.539 23.5891 198.679 2.71909 247.019C-6.47091 268.289 8.71908 290.059 31.9891 290.549C92.2391 291.809 141.779 249.899 150.329 190.239C151.039 185.289 150.419 180.149 150.419 175.099Z" fill="url(#paint2_linear_267_375)"/>
<defs>
<linearGradient id="paint0_linear_267_375" x1="74.7608" y1="68.1788" x2="536.671" y2="282.629" gradientUnits="userSpaceOnUse">
<stop stop-color="#924EFF"/>
<stop offset="1" stop-color="#6608FF"/>
</linearGradient>
<linearGradient id="paint1_linear_267_375" x1="161" y1="93.6886" x2="497.04" y2="164.419" gradientUnits="userSpaceOnUse">
<stop stop-color="#924EFF"/>
<stop offset="1" stop-color="#6608FF"/>
</linearGradient>
<linearGradient id="paint2_linear_267_375" x1="-12.9709" y1="163.539" x2="506.519" y2="326.259" gradientUnits="userSpaceOnUse">
<stop stop-color="#924EFF"/>
<stop offset="1" stop-color="#6608FF"/>
</linearGradient>
</defs>
</svg>
